<svg viewBox="0 0 1099 446" version="1.1" xmlns="http://www.w3.org/2000/svg" xmlns:xlink="http://www.w3.org/1999/xlink" xml:space="preserve" xmlns:serif="http://www.serif.com/" style="fill-rule:evenodd;clip-rule:evenodd;stroke-linejoin:round;stroke-miterlimit:2;">
    <g transform="matrix(1,0,0,1,9.19942,-184.462)">
        <g id="_x30__10_" transform="matrix(1.02991,0,0,1.02991,-15.9958,-8.33709)">
            <path d="M129.3,521.9L129,520L127.4,518.5L127.1,516.7L127.4,514.9L129,513.5L129.3,511.9L129,510.3L127.4,508.901L127.1,507.1L127.4,505.3L129,503.901L129.3,502.3L129,500.8L127.4,499.3L127.1,497.5L127.4,495.7L129,494.2L129.3,492.4L129,490.5L127.4,489L127.1,487.2L127.4,485.4L129,484L129.3,482.4L129,480.8L127.4,479.401L127.1,477.6L127.4,475.8L129,474.401L129.3,472.8L129,471.2L127.4,469.7L127.1,464.7L154.3,464.3L153.6,459.5L175.1,459.5L174.5,429.6L209.4,429.201L209.4,411.6L214.4,411.201L214.8,410.501L214.8,408.101L214.2,407.402L204.1,406.502L203.8,406.002L204.2,405.502L220.5,404.902L221.6,354.002L222.7,404.902L232.7,404.902L233.4,393.502L233.8,393.102L234.3,393.502L234.9,404.902L254.2,404.902L253.8,375.101L254.3,375.801L255,404.9L272.4,405.5L272.7,406L272.5,406.5L262.4,407.4L261.7,408.099L261.7,410.499L262.1,411.199L267.2,411.598L267.2,429.298L306.1,429.298L306.1,462.498L312.1,462.798L312.6,463.198L312.901,464.698L313.501,465.097L318.901,465.797L319.401,466.597L319.1,470L318.5,470.4L316.5,471.2L316.1,472.5L316.5,473.9L319.1,475.799L319.5,477.699L319.1,479.399L318.5,479.999L316.5,480.699L316.1,482.399L316.5,484.098L318.5,484.798L319.1,485.198L319.5,487.198L319.1,489.198L318.5,489.597L317,489.9L316.4,490.4L316.099,491.9L316.799,493.7L318.4,495.099C320.099,495.499 322.299,496.099 324.099,496.299C325.7,496.499 327.799,496.4 329.499,496.4L329.499,447.8L336.699,447.3L335.399,338.5L345.899,338.5L345.499,331L344.799,329.7L344.199,329.3L343.899,328.5L344.298,327.8L345.899,327.1L346.499,325.701L347.199,326.801C347.399,328.501 347.699,330.902 347.699,332.601C347.799,334.402 347.499,336.702 347.299,338.501L359.699,338.501L358.598,330.401L359.098,329.8L360.998,329.8L361.498,330.401L360.398,338.501L371.6,338.501L372.5,332.201L373.2,338.901L374.7,331.501L375.099,338.501L390.4,338.501L388.3,451.4L399.5,451.4L400.5,490.9L401.8,491.2L402.901,491.099L403.6,490.599L404.3,484.7L404.901,484.099L405.6,483.9L406.1,483.5L408.1,388.5L409,390.2L409.4,390.2L409.799,389.599L411.199,374.999L417.699,374.299L418.299,373.699L418.699,371.499C420.299,369.999 422.598,368.199 424.098,366.599C425.498,365.099 427.098,362.9 428.399,361.4L444.598,360.7C446.098,362.4 448.098,364.9 449.699,366.599C451.199,368.2 453.299,369.999 454.899,371.499L455.298,373.799L455.798,374.299L462.899,374.699L463.6,389.6L464,390.201L464.8,389.701L465.5,387.6L466.3,387.201C466.3,387.201 467.901,464.201 468,468.301C468,471.701 467.9,476.402 468.2,479.801C468.3,481.601 468.8,483.801 469,485.501C469.1,487.301 469.1,489.801 469.1,491.601C469.1,491.601 470.1,523.301 470.401,533.902L470.8,534.601L471.3,534.801L472,534.601L472.6,534.101L473.3,529.601L473.8,529.001L475.401,528.701L475.901,528.1L476.701,522.1L477.501,521.6L481.901,521.3L486.1,490.2L485.5,489L485.4,485.8L486.099,485.901L486.799,485.6C487.999,482.8 489.799,479.201 490.9,476.3C492,473.5 493.099,469.5 494.099,466.6C493.7,465.201 493.4,463.3 492.999,462C492.499,460.6 491.499,459 490.799,457.7L491.199,457.5L493.199,458.4L493.699,458.299L497.098,405.799C497.098,405.799 497.598,400.4 497.699,400.199C497.799,399.499 498.399,398.699 498.598,397.999C498.598,397.999 498.899,393.099 498.899,391.399L497.699,391.098L497,390.4L496.6,389.5L496.8,388.8L497.2,388.8L497.7,389.8L498.5,389.8L499.3,389L499.901,386.6L501.901,387.901L503.901,386.6L502.401,392.8C506.701,422.3 507.001,432.3 508.501,458.8L511.501,457.401L511.801,457.701C511.801,457.701 507.902,462.6 508.601,467.801C509.301,472.701 515.902,486.001 515.902,486.001L517.202,485.801L517.1,489L516.3,489.9L515.9,490.8L519.7,520.3L520.2,521.1L525.9,522L526.7,528.1L527.2,528.701L528.8,529.001L529.3,529.601L530,533.902L530.8,534.801C530.9,507.4 531.9,352.2 531.9,352.2C531.9,341 531.599,326 531.7,314.8C531.7,314.8 533,274.4 533.4,264.3L535.299,263.8L535.999,263.2L536.699,254.7L537.199,253.9L538.799,253.5L539.299,252.8L540.099,246.1L540.9,245.6L544.7,245.1L545.9,240.8L556.599,228.6L561.2,228.6L561.2,187.2L564.2,187.2L564.2,228.6L573,228.6L573,187.2L575.9,187.2L575.9,228.6L579.4,228.6L589.799,240.9L591.299,245.1L595.099,245.6L595.999,246.1L596.699,252.8L597.199,253.5L598.899,253.9L599.399,254.7L600.098,263.2L600.699,263.8L602.699,264.3C602.699,264.3 604.999,480.6 605.598,534.7L607.7,504.1C611.1,503.4 615.6,502.2 619,501.7C622.5,501.3 627.1,501.099 630.5,500.8L632.6,474.2L633.1,473.5L633.901,473.3C636.1,471 638.901,467.7 641.3,465.6C643.7,463.401 647.2,460.901 649.7,459C652.099,460.9 655.2,463.3 657.5,465.4C659.7,467.4 662.5,470.299 664.7,472.4L668.9,500.799C668.9,500.799 679.5,500.999 680.099,501.099C680.099,501.099 686.499,502.799 691.7,504.4L693.9,534.5L694.4,534.8C694.4,534.8 695,416.7 695,410.5C702.2,401.3 702.9,399.8 707.3,387.6L707.6,395.3L729.7,395.3L730.5,388.3L731,395.5L742.9,395L754.299,411.4L754.299,534.9L758.199,534.299L758.999,533.099L759.899,514.9L765.399,514.9L765.399,494.2L775.399,494.2L775.399,410.8L786.6,410.8L786.6,371L849.9,371L849.9,434.4L858.799,434.4L858.499,441.4L857.699,442.5L856.899,443.1L856.6,444.4L856.901,445.7L857.701,446.2L858.501,447.4L858.501,453.2L857.701,454.4L856.901,454.9L856.6,456.2L856.901,457.5L857.701,458L858.501,459.2L858.501,465L857.701,466.2L856.901,466.7L856.6,468L856.901,469.3L857.701,469.8L858.501,471L858.501,476.8L857.701,478L856.901,478.5L856.6,479.8L856.901,481.1L858.3,482L858.901,485.8L857.8,489.5L856,490.8L855.5,492L856,493L858,493.7L858.5,494.3L858.5,500.7L858,501.4L855.8,502L855.7,503.6L856.099,504.701L856.9,505.401L868.9,506.1L868.9,499.4L878.9,499.4L878.9,405.7L898.9,405.7L898.9,336.3L938.9,336.3L940,303.8L940.8,304C941.7,304.9 942.901,306.2 943.901,307C944.501,307.6 945.501,308.1 946.1,308.6C946.5,309 946.901,309.6 947.201,310.1L947.701,316L942.401,312.1L941.501,312L940.901,312.7L940.001,336.3L981.301,336.3C981.301,343.2 981.101,432.6 981.001,473.901L991.501,474.6L992.201,475.3L992.001,478.1L990.701,479.201L990.1,493.501L996.901,493.201L997.6,492.901L998.401,491.6L1000.3,491.1L1000.8,490.5L1001.6,485.3L1002.4,484.7L1004.3,484.2L1004.9,483.599C1004.9,483.599 1006.4,414.499 1006.6,402.299L1007.3,401.999L1008.2,402.299L1008.7,403.299L1009,415.999L1018.1,416.299L1018.8,416.699L1019.2,418.199L1019.8,418.598L1026.2,418.598L1026.7,417.998L1026.9,415.598L1027.7,414.899L1042.3,414.098L1043.1,415.098L1043.5,418.899L1059.1,418.899C1059.1,418.899 1059,494.499 1059,498.399L1059.5,499.098L1060.7,499.399L1061.6,498.798L1063.2,465.298L1065.2,464.298L1065.9,462.399L1066.7,461.999L1073.1,462.199L1073.1,619.799L6.599,619.799L6.599,534.799L10.299,534.799L10.299,522.199L19.199,522.199L18.899,472.799L27,472.799L27,456.599L32.2,456.499L33.2,456.099L34,450L34.5,449.4L36.1,449L36.6,448.2L37,439.6L112.6,439.8L112.9,455.401L113.7,456.401L116.5,457.001L117.3,458.001L118.9,472.201L119.3,472.801L120.4,534.801L128.7,534.402L129.2,533.502L129,529.702L127.4,528.202L127.1,526.702L127.4,525.101L129,523.702L129.3,521.9Z" style="fill-rule:nonzero;"/>
        </g>
    </g>
</svg>
