<svg width="100%" height="100%" viewBox="0 0 421 625" version="1.1" xmlns="http://www.w3.org/2000/svg" xmlns:xlink="http://www.w3.org/1999/xlink" xml:space="preserve" xmlns:serif="http://www.serif.com/" style="fill-rule:evenodd;clip-rule:evenodd;stroke-linejoin:round;stroke-miterlimit:2;">
    <g transform="matrix(1,0,0,1,-85.7675,-69.0466)">
        <g id="Cartoon-Me" serif:id="Cartoon Me" transform="matrix(0.764068,0,0,0.7073,157.141,-113.707)">
            <g id="Shirt" transform="matrix(2.57594,0,0,2.70645,-288.777,-264.029)">
                <path d="M75.966,519.47C75.883,511.955 75.56,455.229 76.467,383.477C76.647,369.226 289.09,370.37 289.273,383.836C289.72,416.566 289.273,519.336 289.273,519.336C289.273,519.336 75.26,519.478 75.966,519.47Z"/>
            </g>
            <g id="Neck" transform="matrix(3.6021,0,0,3.74597,-469.318,-624.663)">
                <path d="M140,368C140,374.654 140.022,379.459 140,384.961C139.968,392.981 161.057,399.25 180,399.658C198.656,400.06 219.891,391.33 220,384.961C220.122,377.821 220,373.654 220,368" style="fill:rgb(240,178,167);"/>
            </g>
            <g id="Neck-shadow" serif:id="Neck shadow" transform="matrix(2.68427,0,0,3.047,-305.488,-307.043)">
                <ellipse cx="182.5" cy="359.23" rx="47.5" ry="25.73" style="fill:rgb(239,165,152);"/>
            </g>
            <g id="Face" transform="matrix(3.51919,0,0,3.08688,-548.727,-356.699)">
                <ellipse cx="206" cy="301" rx="59" ry="91" style="fill:rgb(240,178,167);"/>
            </g>
            <g id="Beard" transform="matrix(3.06052,0,0,3.73769,-367.903,-638.081)">
                <path d="M120,365C123.333,370.333 132.565,381.376 141,387C149.5,392.667 161.333,397.333 171,399C180.221,400.59 190.333,399.5 199,397C207.667,394.5 216.024,389.84 223,384C230.167,378 237.833,365.667 242,361C243.734,359.058 241.667,353.5 240,354C238.333,354.5 235.497,361.552 232,364C227,367.5 212.143,380.718 200,384C187.667,387.333 158,384 158,384C158,384 147.255,376.777 142,373C136.667,369.167 126,361 126,361C126,361 122,354.333 121,355C120,355.667 118.225,362.159 120,365Z" style="fill:rgb(52,39,31);"/>
            </g>
            <g id="Mustache-A" serif:id="Mustache A" transform="matrix(2.39317,-0.508025,0.40201,2.04806,-394.694,66.5057)">
                <path d="M187.401,323.842C187.401,327.259 189,333.333 192,336.5C195,339.667 202.667,340.417 206,342C208.171,343.031 210.667,344 212,346C213.333,348 213,352.833 214,354C214.894,355.043 218.612,355.319 219,354C219.833,351.167 219.469,339.064 216,335C210.167,328.167 207.212,331.872 200,326C196.703,323.316 197.667,321 192,316C191.054,315.166 188.148,315.309 187.401,316.853C186.606,318.496 187.401,322.456 187.401,323.842Z" style="fill:rgb(52,39,31);"/>
            </g>
            <g id="Mustache-A1" serif:id="Mustache A" transform="matrix(-2.39026,-0.52263,-0.413567,2.04557,766.759,70.3082)">
                <path d="M187.401,323.842C187.401,327.259 189,333.333 192,336.5C195,339.667 202.667,340.417 206,342C208.171,343.031 210.667,344 212,346C213.333,348 213,352.833 214,354C214.894,355.043 218.612,355.319 219,354C219.833,351.167 219.469,339.064 216,335C210.167,328.167 207.212,331.872 200,326C196.703,323.316 197.667,321 192,316C191.054,315.166 188.148,315.309 187.401,316.853C186.606,318.496 187.401,322.456 187.401,323.842Z" style="fill:rgb(52,39,31);"/>
            </g>
            <g id="Glasses" transform="matrix(2.3357,0,0,2.3357,-262.972,-117.064)">
                <path d="M110.033,253.839C109.962,252.976 119.821,251.888 128.251,251.458C143.889,250.662 165.596,250.077 180.861,254.227C189.245,256.506 196.291,256.136 203.694,254.227C222.572,249.357 249.951,249.734 260.855,251.541C263.771,252.024 273.035,253.564 273.033,254.227C273.029,256.078 273.033,262.959 273.033,262.959C273.033,262.959 269.588,266.457 267.687,274.25C265.407,283.602 262.956,295.413 256.539,297.887C250.95,300.043 244.033,301.014 234.345,301.327C227.095,301.562 221.613,300.37 217.73,298.858C209.795,295.766 203.564,286.203 200.783,277.512C198.867,271.524 197.635,269.883 195.932,267.81C193.951,265.401 189.365,264.822 186.97,267.675C185.349,269.607 183.573,273.37 182.142,277.279C178.229,287.969 172.944,294.685 169.218,296.917C163.12,300.571 160.587,301.448 146.784,301.157C139.888,301.012 129.758,301.119 123.617,295.947C118.831,288.768 117.573,281.514 115.936,273.528C114.834,268.151 110.033,263.929 110.033,263.929C110.033,263.929 110.045,253.979 110.033,253.839ZM203.176,261.24C201.534,265.184 204.232,271.831 205.302,276.051C207.559,284.96 211.952,292.107 215.789,294.228C219.456,296.254 222.319,297.326 224.821,297.891C228.614,298.747 231.578,298.439 235.252,298.526C239.686,298.632 241.969,298.377 249.329,297.177C251.748,296.783 253.728,295.608 255.569,294.228C264.209,287.754 263.479,264.119 260.42,258.329C259.469,256.528 255.426,254.69 254.818,254.473C251.214,253.181 241.899,253.016 235.977,253.15C233.393,253.208 224.69,253.286 213.334,255.017C211.193,255.343 204.612,257.793 203.176,261.24ZM179.536,261.24C181.177,265.184 178.479,271.831 177.41,276.051C175.153,284.96 170.76,292.107 166.922,294.228C163.256,296.254 160.393,297.326 157.891,297.891C154.098,298.747 151.134,298.439 147.46,298.526C143.026,298.632 140.743,298.377 133.382,297.177C130.964,296.783 128.984,295.608 127.143,294.228C118.503,287.754 119.233,264.119 122.291,258.329C123.243,256.528 127.286,254.69 127.894,254.473C131.498,253.181 140.812,253.016 146.735,253.15C149.319,253.208 158.022,253.286 169.378,255.017C171.519,255.343 178.1,257.793 179.536,261.24Z"/>
            </g>
            <g id="Hair" transform="matrix(3.10541,0,0,3.10541,-394.056,-244.467)">
                <path d="M153.132,191.127C139.581,205.022 142.544,203.753 138.989,209.969C135.711,215.7 132.838,223.708 131.8,228.425C127.98,245.79 132.729,275.547 131.225,277.804C132.729,290.59 131.743,327.256 131.911,331.918C132.079,336.601 131.976,342.003 131.838,345.975C131.725,349.242 134.101,378.53 134.101,378.53L131.766,394.184C131.766,394.184 130.798,393.917 131.703,413.432C131.71,413.589 127.074,419.968 125.942,420.209C123.661,420.696 117.798,419.148 115.054,418.049C106.399,414.582 109.253,395.386 109.253,395.386C109.253,395.386 108.785,355.575 108.05,341.973C107.54,332.527 104.976,294.008 107.014,276.706C108.724,262.19 105.478,229.095 111.934,216.125C116.782,206.387 116.495,203.786 122.633,194.803C126.288,189.453 127.33,183.117 134.249,179.961C136.494,178.937 145.04,173.701 147.191,172.607C152.17,170.074 159.414,167.058 165.124,166.232C171.473,165.314 185.444,160.645 191.983,162.266C196.301,163.336 213.018,164.901 218.14,169.598C223.468,174.484 226.182,174.542 231.726,179.376C243.776,189.883 255.809,216.303 259.948,228.425C265.466,244.586 259.511,250.851 263.9,270.659C264.88,275.084 264.055,308.44 264.055,308.44L264.38,327.685L263.025,342.547C263.025,342.547 263.025,373.336 262.273,373.336C263.777,394.395 263.025,404.269 263.025,404.269C263.025,406.812 264.611,425.393 251.824,423.426C242.046,421.922 236.265,422.863 237.769,409.325C237.769,394.282 238.187,379.032 238.187,379.032L239.751,355.79L239.522,334.689C239.522,334.689 242.726,285.754 240.431,263.064C239.407,252.932 239.466,227.16 234.817,217.895C230.99,210.269 221.838,195.198 217.857,189.496C214.462,184.634 206.264,184.918 198.638,182.252C191,179.582 177.136,184.423 168.266,184.004" style="fill:rgb(52,39,31);"/>
            </g>
        </g>
    </g>
</svg>
